<svg width="92" height="91" viewBox="0 0 92 91" fill="none" xmlns="http://www.w3.org/2000/svg">
<circle cx="46" cy="45.5" r="44.5521" fill="#81F4E1" stroke="#2B2D54" stroke-width="1.89583"/>
<path d="M42.6682 63V31.55L46.9182 35.65H36.1682V28H52.5682V63H42.6682Z" fill="#FFD656"/>
<path d="M42.6682 63H40.7723V64.8958H42.6682V63ZM42.6682 31.55L43.9844 30.1856L40.7723 27.0869V31.55H42.6682ZM46.9182 35.65V37.5458H51.614L48.2344 34.2856L46.9182 35.65ZM36.1682 35.65H34.2723V37.5458H36.1682V35.65ZM36.1682 28V26.1042H34.2723V28H36.1682ZM52.5682 28H54.464V26.1042H52.5682V28ZM52.5682 63V64.8958H54.464V63H52.5682ZM44.564 63V31.55H40.7723V63H44.564ZM41.3519 32.9144L45.6019 37.0144L48.2344 34.2856L43.9844 30.1856L41.3519 32.9144ZM46.9182 33.7542H36.1682V37.5458H46.9182V33.7542ZM38.064 35.65V28H34.2723V35.65H38.064ZM36.1682 29.8958H52.5682V26.1042H36.1682V29.8958ZM50.6723 28V63H54.464V28H50.6723ZM52.5682 61.1042H42.6682V64.8958H52.5682V61.1042Z" fill="#2B2D54"/>
</svg>
