<svg width="92" height="91" viewBox="0 0 92 91" fill="none" xmlns="http://www.w3.org/2000/svg">
<circle cx="46" cy="45.5" r="44.5521" fill="#81F4E1" stroke="#2B2D54" stroke-width="1.89583"/>
<path d="M32.5342 63V56.8L45.6342 44.55C46.5675 43.6833 47.2508 42.9167 47.6842 42.25C48.1508 41.5833 48.4508 40.9833 48.5842 40.45C48.7508 39.8833 48.8342 39.3667 48.8342 38.9C48.8342 37.7667 48.4508 36.8833 47.6842 36.25C46.9508 35.6167 45.8342 35.3 44.3342 35.3C43.0675 35.3 41.8842 35.5833 40.7842 36.15C39.6842 36.7167 38.7842 37.5667 38.0842 38.7L30.7342 34.6C32.0342 32.4 33.9175 30.6333 36.3842 29.3C38.8508 27.9667 41.8008 27.3 45.2342 27.3C47.9342 27.3 50.3008 27.7333 52.3342 28.6C54.3675 29.4667 55.9508 30.7 57.0842 32.3C58.2508 33.9 58.8342 35.7833 58.8342 37.95C58.8342 39.0833 58.6842 40.2167 58.3842 41.35C58.0842 42.45 57.5008 43.6333 56.6342 44.9C55.8008 46.1333 54.5508 47.5167 52.8842 49.05L42.4842 58.65L40.8342 55.15H59.7842V63H32.5342Z" fill="#FFD656"/>
<path d="M32.5342 63H30.6383V64.8958H32.5342V63ZM32.5342 56.8L31.2393 55.4153L30.6383 55.9772V56.8H32.5342ZM45.6342 44.55L44.3442 43.1607L44.3393 43.1653L45.6342 44.55ZM47.6842 42.25L46.1311 41.1628L46.1124 41.1895L46.0946 41.2168L47.6842 42.25ZM48.5842 40.45L46.7654 39.9151L46.7544 39.9524L46.745 39.9902L48.5842 40.45ZM47.6842 36.25L46.445 37.6848L46.4607 37.6984L46.4768 37.7116L47.6842 36.25ZM40.7842 36.15L41.6524 37.8353L41.6524 37.8353L40.7842 36.15ZM38.0842 38.7L37.1606 40.3557L38.7442 41.239L39.6972 39.6962L38.0842 38.7ZM30.7342 34.6L29.102 33.6355L28.1132 35.3088L29.8106 36.2557L30.7342 34.6ZM36.3842 29.3L37.2857 30.9678L37.2857 30.9678L36.3842 29.3ZM52.3342 28.6L51.5908 30.344L51.5908 30.344L52.3342 28.6ZM57.0842 32.3L55.5371 33.3958L55.5447 33.4064L55.5523 33.417L57.0842 32.3ZM58.3842 41.35L60.2132 41.8488L60.2151 41.842L60.2169 41.8351L58.3842 41.35ZM56.6342 44.9L55.0695 43.8294L55.0633 43.8386L56.6342 44.9ZM52.8842 49.05L51.6006 47.6548L51.5983 47.6569L52.8842 49.05ZM42.4842 58.65L40.7694 59.4584L41.8713 61.7958L43.7701 60.0431L42.4842 58.65ZM40.8342 55.15V53.2542H37.8445L39.1194 55.9584L40.8342 55.15ZM59.7842 55.15H61.68V53.2542H59.7842V55.15ZM59.7842 63V64.8958H61.68V63H59.7842ZM34.43 63V56.8H30.6383V63H34.43ZM33.8291 58.1847L46.9291 45.9347L44.3393 43.1653L31.2393 55.4153L33.8291 58.1847ZM46.9242 45.9393C47.9121 45.0219 48.7205 44.1344 49.2737 43.2832L46.0946 41.2168C45.7812 41.6989 45.2229 42.3447 44.3442 43.1607L46.9242 45.9393ZM49.2373 43.3372C49.779 42.5633 50.2137 41.7486 50.4234 40.9098L46.745 39.9902C46.688 40.2181 46.5227 40.6034 46.1311 41.1628L49.2373 43.3372ZM50.403 40.9849C50.6079 40.2884 50.73 39.5883 50.73 38.9H46.9383C46.9383 39.145 46.8938 39.4783 46.7654 39.9151L50.403 40.9849ZM50.73 38.9C50.73 37.2898 50.1583 35.8348 48.8916 34.7884L46.4768 37.7116C46.7434 37.9319 46.9383 38.2435 46.9383 38.9H50.73ZM48.9233 34.8152C47.7003 33.7589 46.0509 33.4042 44.3342 33.4042V37.1958C45.6174 37.1958 46.2014 37.4744 46.445 37.6848L48.9233 34.8152ZM44.3342 33.4042C42.7729 33.4042 41.291 33.7563 39.916 34.4647L41.6524 37.8353C42.4774 37.4104 43.3621 37.1958 44.3342 37.1958V33.4042ZM39.916 34.4647C38.4863 35.2012 37.3379 36.3006 36.4712 37.7038L39.6972 39.6962C40.2305 38.8327 40.8821 38.2322 41.6524 37.8353L39.916 34.4647ZM39.0077 37.0443L31.6577 32.9443L29.8106 36.2557L37.1606 40.3557L39.0077 37.0443ZM32.3664 35.5645C33.4744 33.6893 35.0915 32.1538 37.2857 30.9678L35.4827 27.6322C32.7435 29.1129 30.594 31.1107 29.102 33.6355L32.3664 35.5645ZM37.2857 30.9678C39.4199 29.8142 42.0457 29.1958 45.2342 29.1958V25.4042C41.556 25.4042 38.2818 26.1192 35.4827 27.6322L37.2857 30.9678ZM45.2342 29.1958C47.7338 29.1958 49.8384 29.5971 51.5908 30.344L53.0775 26.856C50.7633 25.8696 48.1345 25.4042 45.2342 25.4042V29.1958ZM51.5908 30.344C53.3436 31.0911 54.6315 32.1173 55.5371 33.3958L58.6312 31.2042C57.2702 29.2827 55.3914 27.8422 53.0775 26.856L51.5908 30.344ZM55.5523 33.417C56.46 34.6618 56.9383 36.145 56.9383 37.95H60.73C60.73 35.4217 60.0417 33.1382 58.616 31.183L55.5523 33.417ZM56.9383 37.95C56.9383 38.914 56.811 39.8844 56.5515 40.8649L60.2169 41.8351C60.5573 40.549 60.73 39.2527 60.73 37.95H56.9383ZM56.5552 40.8512C56.3263 41.6903 55.8554 42.6808 55.0695 43.8295L58.1988 45.9705C59.1463 44.5858 59.8421 43.2097 60.2132 41.8488L56.5552 40.8512ZM55.0633 43.8386C54.3433 44.9042 53.2088 46.1752 51.6006 47.6548L54.1678 50.4452C55.8929 48.8581 57.2584 47.3625 58.205 45.9614L55.0633 43.8386ZM51.5983 47.6569L41.1983 57.2569L43.7701 60.0431L54.1701 50.4431L51.5983 47.6569ZM44.199 57.8416L42.549 54.3416L39.1194 55.9584L40.7694 59.4584L44.199 57.8416ZM40.8342 57.0458H59.7842V53.2542H40.8342V57.0458ZM57.8883 55.15V63H61.68V55.15H57.8883ZM59.7842 61.1042H32.5342V64.8958H59.7842V61.1042Z" fill="#2B2D54"/>
</svg>
