<svg width="30" height="30" viewBox="0 0 30 30" fill="none" xmlns="http://www.w3.org/2000/svg">
<path d="M3.125 14.3875V9.80002C3.125 8.31252 4.0375 6.98746 5.425 6.46246L15.35 2.71246C16.9 2.13746 18.5625 3.275 18.5625 4.9375V9.68749" fill="#F08300"/>
<path d="M3.125 14.3875V9.80002C3.125 8.31252 4.0375 6.98746 5.425 6.46246L15.35 2.71246C16.9 2.13746 18.5625 3.275 18.5625 4.9375V9.68749" stroke="#2B2D54" stroke-width="1.5" stroke-linecap="round" stroke-linejoin="round"/>
<path d="M22.55 16.9375C22.025 17.45 21.725 18.1875 21.8 18.975C21.9125 20.325 23.15 21.3125 24.5 21.3125H26.875V22.8C26.875 25.3875 24.7625 27.5 22.175 27.5H9.55C10.5875 26.5875 11.25 25.25 11.25 23.75C11.25 20.9875 9.0125 18.75 6.25 18.75C5.075 18.75 3.9875 19.1625 3.125 19.85V14.3875C3.125 11.8 5.23749 9.6875 7.82499 9.6875H22.175C24.7625 9.6875 26.875 11.8 26.875 14.3875V16.1875H24.35C23.65 16.1875 23.0125 16.4625 22.55 16.9375Z" fill="#FFD656" stroke="#2B2D54" stroke-width="1.5" stroke-linecap="round" stroke-linejoin="round"/>
<path d="M28.1985 17.4627V20.0378C28.1985 20.7253 27.6485 21.2877 26.9485 21.3127H24.4985C23.1485 21.3127 21.911 20.3252 21.7985 18.9752C21.7235 18.1877 22.0235 17.4502 22.5485 16.9377C23.011 16.4627 23.6485 16.1877 24.3485 16.1877H26.9485C27.6485 16.2127 28.1985 16.7752 28.1985 17.4627Z" fill="#81F4E1" stroke="#2B2D54" stroke-width="1.5" stroke-linecap="round" stroke-linejoin="round"/>
<path d="M8.75 15H17.5" stroke="#2B2D54" stroke-width="1.5" stroke-linecap="round" stroke-linejoin="round"/>
<path d="M11.25 23.75C11.25 25.25 10.5875 26.5875 9.55 27.5C8.6625 28.275 7.5125 28.75 6.25 28.75C3.4875 28.75 1.25 26.5125 1.25 23.75C1.25 22.175 1.975 20.7625 3.125 19.85C3.9875 19.1625 5.075 18.75 6.25 18.75C9.0125 18.75 11.25 20.9875 11.25 23.75Z" fill="#81F4E1" stroke="#2B2D54" stroke-width="1.5" stroke-miterlimit="10" stroke-linecap="round" stroke-linejoin="round"/>
<path d="M6.5625 22.1875V24.0625L5 25" fill="#81F4E1"/>
<path d="M6.5625 22.1875V24.0625L5 25" stroke="#2B2D54" stroke-width="1.5" stroke-miterlimit="10" stroke-linecap="round" stroke-linejoin="round"/>
</svg>
