<svg width="30" height="30" viewBox="0 0 30 30" fill="none" xmlns="http://www.w3.org/2000/svg">
<path d="M10 2.5V6.25" stroke="#2B2D54" stroke-width="1.5" stroke-miterlimit="10" stroke-linecap="round" stroke-linejoin="round"/>
<path d="M20 2.5V6.25" stroke="#2B2D54" stroke-width="1.5" stroke-miterlimit="10" stroke-linecap="round" stroke-linejoin="round"/>
<path d="M26.25 10.625V17.0375C25.1375 16.15 23.725 15.625 22.1875 15.625C20.65 15.625 19.2125 16.1625 18.0875 17.075C16.575 18.2625 15.625 20.125 15.625 22.1875C15.625 23.4125 15.975 24.5875 16.575 25.5625C17.0375 26.325 17.6375 26.9875 18.35 27.5H10C5.625 27.5 3.75 25 3.75 21.25V10.625C3.75 6.875 5.625 4.375 10 4.375H20C24.375 4.375 26.25 6.875 26.25 10.625Z" fill="#81F4E1" stroke="#2B2D54" stroke-width="1.5" stroke-miterlimit="10" stroke-linecap="round" stroke-linejoin="round"/>
<path d="M8.75 13.75H16.25" stroke="#2B2D54" stroke-width="1.5" stroke-miterlimit="10" stroke-linecap="round" stroke-linejoin="round"/>
<path d="M8.75 20H12.025" stroke="#2B2D54" stroke-width="1.5" stroke-miterlimit="10" stroke-linecap="round" stroke-linejoin="round"/>
<path d="M28.75 22.1875C28.75 23.4125 28.4 24.5875 27.8 25.5625C27.45 26.1625 27.0125 26.6875 26.5 27.1125C25.35 28.1375 23.85 28.75 22.1875 28.75C20.75 28.75 19.425 28.2875 18.35 27.5C17.6375 26.9875 17.0375 26.325 16.575 25.5625C15.975 24.5875 15.625 23.4125 15.625 22.1875C15.625 20.125 16.575 18.2625 18.0875 17.075C19.2125 16.1625 20.65 15.625 22.1875 15.625C23.725 15.625 25.1375 16.15 26.25 17.0375C27.775 18.2375 28.75 20.1 28.75 22.1875Z" fill="#F08300" stroke="#2B2D54" stroke-width="1.5" stroke-miterlimit="10" stroke-linecap="round" stroke-linejoin="round"/>
<path d="M23.6875 20.6875L20.6875 23.6875" stroke="#2B2D54" stroke-width="1.5" stroke-miterlimit="10" stroke-linecap="round" stroke-linejoin="round"/>
<path d="M20.6875 20.6875L23.6875 23.6875" stroke="#2B2D54" stroke-width="1.5" stroke-miterlimit="10" stroke-linecap="round" stroke-linejoin="round"/>
</svg>
